<svg width="1437" height="2000" viewBox="0 0 1437 2000" fill="none" xmlns="http://www.w3.org/2000/svg">
<path fill-rule="evenodd" clip-rule="evenodd" d="M808.24 2000V1079.28L1193.68 1464.9C1202.03 1473.25 1211.94 1479.87 1222.85 1484.39C1233.76 1488.91 1245.45 1491.24 1257.26 1491.24C1269.07 1491.24 1280.76 1488.91 1291.67 1484.39C1302.58 1479.87 1312.49 1473.25 1320.84 1464.9C1329.19 1456.55 1335.82 1446.64 1340.34 1435.73C1344.85 1424.82 1347.18 1413.13 1347.18 1401.32C1347.18 1389.51 1344.85 1377.82 1340.34 1366.91C1335.82 1356 1329.19 1346.09 1320.84 1337.74L782.017 798.911C773.675 790.548 763.765 783.913 752.854 779.386C741.944 774.858 730.248 772.528 718.435 772.528C706.623 772.528 694.927 774.858 684.016 779.386C673.106 783.913 663.196 790.548 654.854 798.911L116.027 1337.74C99.1644 1354.6 89.6909 1377.47 89.6909 1401.32C89.6909 1425.17 99.1644 1448.04 116.027 1464.9C132.89 1481.76 155.761 1491.24 179.609 1491.24C203.457 1491.24 226.328 1481.76 243.19 1464.9L628.631 1079.28V2000C471.204 1980.17 323.814 1908.6 210.425 1795.21C75.6921 1660.47 0 1477.74 0 1287.2C0 808.24 718.435 0 718.435 0C718.435 0 1436.87 808.24 1436.87 1287.2C1436.87 1477.74 1361.18 1660.47 1226.45 1795.21C1113.06 1908.6 965.667 1980.17 808.24 2000Z" fill="url(#paint0_linear_3_13)"/>
<defs>
<linearGradient id="paint0_linear_3_13" x1="718.435" y1="0" x2="718.435" y2="2000" gradientUnits="userSpaceOnUse">
<stop stop-color="#20A1CB"/>
<stop offset="1" stop-color="#0460B5"/>
</linearGradient>
</defs>
</svg>
